<svg width="20" height="12" viewBox="0 0 20 12" fill="none" xmlns="http://www.w3.org/2000/svg">
<path d="M19.3659 2.48492L10.5005 11.3767C10.395 11.4823 10.2806 11.5572 10.1575 11.6015C10.0344 11.6459 9.90244 11.6677 9.76172 11.667C9.621 11.667 9.48907 11.6448 9.36594 11.6005C9.24281 11.5562 9.12847 11.4816 9.02293 11.3767L0.131112 2.48492C-0.11515 2.23866 -0.238281 1.93083 -0.238281 1.56143C-0.238281 1.19204 -0.106355 0.875419 0.157497 0.611567C0.421349 0.347714 0.729177 0.215788 1.08098 0.215788C1.43278 0.215788 1.74061 0.347714 2.00446 0.611567L9.76172 8.36882L17.519 0.611567C17.7652 0.365305 18.0688 0.242173 18.4298 0.242173C18.7907 0.242173 19.1028 0.374099 19.3659 0.637951C19.6298 0.901803 19.7617 1.20963 19.7617 1.56143C19.7617 1.91324 19.6298 2.22107 19.3659 2.48492Z" fill="white"/>
</svg>
