<svg width="19" height="18" viewBox="0 0 19 18" fill="none" xmlns="http://www.w3.org/2000/svg">
<path d="M17.266 18L10.966 11.7C10.466 12.1 9.89102 12.4167 9.24102 12.65C8.59102 12.8833 7.89935 13 7.16602 13C5.34935 13 3.81202 12.3707 2.55402 11.112C1.29602 9.85333 0.666682 8.316 0.666016 6.5C0.666016 4.68333 1.29535 3.146 2.55402 1.888C3.81268 0.63 5.35002 0.000666667 7.16602 0C8.98268 0 10.52 0.629333 11.778 1.888C13.036 3.14667 13.6653 4.684 13.666 6.5C13.666 7.23333 13.5493 7.925 13.316 8.575C13.0827 9.225 12.766 9.8 12.366 10.3L18.666 16.6L17.266 18ZM7.16602 11C8.41602 11 9.47868 10.5623 10.354 9.687C11.2293 8.81167 11.6667 7.74933 11.666 6.5C11.666 5.25 11.2283 4.18733 10.353 3.312C9.47768 2.43667 8.41535 1.99933 7.16602 2C5.91602 2 4.85335 2.43767 3.97802 3.313C3.10268 4.18833 2.66535 5.25067 2.66602 6.5C2.66602 7.75 3.10368 8.81267 3.97902 9.688C4.85435 10.5633 5.91668 11.0007 7.16602 11Z" fill="white"/>
</svg>
