<svg width="48" height="94" viewBox="0 0 48 94" fill="none" xmlns="http://www.w3.org/2000/svg">
<g filter="url(#filter0_dddddd_167_2797)">
<path d="M33.3771 81C30.8412 81 28.3694 80.3875 25.9616 79.1626C23.5539 77.9376 21.421 76.3191 19.5629 74.307C17.7048 72.2949 16.2108 69.9843 15.0809 67.3751C13.9509 64.7658 13.3856 62.088 13.3848 59.3417C13.3848 58.9583 13.5027 58.6389 13.7386 58.3833C13.9745 58.1278 14.2694 58 14.6232 58H19.4002C19.6754 58 19.9211 58.0958 20.1373 58.2875C20.3536 58.4792 20.4813 58.7241 20.5207 59.0222L21.2873 63.4944C21.3266 63.7926 21.3215 64.0643 21.272 64.3097C21.2225 64.555 21.1096 64.7731 20.9335 64.9639L18.1027 68.0944C18.9284 69.6278 19.9604 71.0653 21.1989 72.4069C22.4373 73.7486 23.8036 74.9093 25.2976 75.8889L28.0694 72.8861C28.2463 72.6944 28.4775 72.5509 28.7629 72.4555C29.0484 72.3601 29.3283 72.3333 29.6027 72.375L33.6719 73.2694C33.9472 73.3333 34.1732 73.4773 34.3501 73.7013C34.5271 73.9254 34.6155 74.186 34.6155 74.4833V79.6583C34.6155 80.0417 34.4976 80.3611 34.2617 80.6167C34.0258 80.8722 33.7309 81 33.3771 81Z" fill="#F8EDFF"/>
</g>
<defs>
<filter id="filter0_dddddd_167_2797" x="-50.3208" y="-5.70558" width="148.642" height="150.411" filterUnits="userSpaceOnUse" color-interpolation-filters="sRGB">
<feFlood flood-opacity="0" result="BackgroundImageFix"/>
<feColorMatrix in="SourceAlpha" type="matrix" values="0 0 0 0 0 0 0 0 0 0 0 0 0 0 0 0 0 0 127 0" result="hardAlpha"/>
<feOffset/>
<feGaussianBlur stdDeviation="0.7584"/>
<feColorMatrix type="matrix" values="0 0 0 0 0 0 0 0 0 1 0 0 0 0 0.882353 0 0 0 1 0"/>
<feBlend mode="normal" in2="BackgroundImageFix" result="effect1_dropShadow_167_2797"/>
<feColorMatrix in="SourceAlpha" type="matrix" values="0 0 0 0 0 0 0 0 0 0 0 0 0 0 0 0 0 0 127 0" result="hardAlpha"/>
<feOffset/>
<feGaussianBlur stdDeviation="1.5168"/>
<feColorMatrix type="matrix" values="0 0 0 0 0 0 0 0 0 1 0 0 0 0 0.882353 0 0 0 1 0"/>
<feBlend mode="normal" in2="effect1_dropShadow_167_2797" result="effect2_dropShadow_167_2797"/>
<feColorMatrix in="SourceAlpha" type="matrix" values="0 0 0 0 0 0 0 0 0 0 0 0 0 0 0 0 0 0 127 0" result="hardAlpha"/>
<feOffset/>
<feGaussianBlur stdDeviation="5.3088"/>
<feColorMatrix type="matrix" values="0 0 0 0 0 0 0 0 0 1 0 0 0 0 0.882353 0 0 0 1 0"/>
<feBlend mode="normal" in2="effect2_dropShadow_167_2797" result="effect3_dropShadow_167_2797"/>
<feColorMatrix in="SourceAlpha" type="matrix" values="0 0 0 0 0 0 0 0 0 0 0 0 0 0 0 0 0 0 127 0" result="hardAlpha"/>
<feOffset/>
<feGaussianBlur stdDeviation="10.6176"/>
<feColorMatrix type="matrix" values="0 0 0 0 0 0 0 0 0 1 0 0 0 0 0.882353 0 0 0 1 0"/>
<feBlend mode="normal" in2="effect3_dropShadow_167_2797" result="effect4_dropShadow_167_2797"/>
<feColorMatrix in="SourceAlpha" type="matrix" values="0 0 0 0 0 0 0 0 0 0 0 0 0 0 0 0 0 0 127 0" result="hardAlpha"/>
<feOffset/>
<feGaussianBlur stdDeviation="18.2016"/>
<feColorMatrix type="matrix" values="0 0 0 0 0 0 0 0 0 1 0 0 0 0 0.882353 0 0 0 1 0"/>
<feBlend mode="normal" in2="effect4_dropShadow_167_2797" result="effect5_dropShadow_167_2797"/>
<feColorMatrix in="SourceAlpha" type="matrix" values="0 0 0 0 0 0 0 0 0 0 0 0 0 0 0 0 0 0 127 0" result="hardAlpha"/>
<feOffset/>
<feGaussianBlur stdDeviation="31.8528"/>
<feColorMatrix type="matrix" values="0 0 0 0 0 0 0 0 0 1 0 0 0 0 0.882353 0 0 0 1 0"/>
<feBlend mode="normal" in2="effect5_dropShadow_167_2797" result="effect6_dropShadow_167_2797"/>
<feBlend mode="normal" in="SourceGraphic" in2="effect6_dropShadow_167_2797" result="shape"/>
</filter>
</defs>
</svg>
