<svg width="28" height="28" viewBox="0 0 28 28" fill="none" xmlns="http://www.w3.org/2000/svg">
<path d="M14 -0.00390625C6.26801 -0.00390625 0 6.26411 0 13.9961C0 21.7281 6.26801 27.9961 14 27.9961C21.732 27.9961 28 21.7281 28 13.9961C27.991 6.26784 21.7283 0.00509431 14 -0.00390625Z" fill="#5243C2" fill-opacity="0.15"/>
<path d="M22.0818 9.56296L14.096 20.4001C13.9055 20.6528 13.6215 20.8184 13.3078 20.8596C12.9941 20.9009 12.677 20.8143 12.4277 20.6195L6.72499 16.0601C6.22177 15.6574 6.14029 14.923 6.54299 14.4198C6.9457 13.9166 7.6801 13.8351 8.18333 14.2378L12.9387 18.0423L20.2035 8.1828C20.4417 7.82532 20.8571 7.62768 21.2848 7.66834C21.7124 7.709 22.0831 7.98139 22.2497 8.37736C22.4163 8.77333 22.3518 9.22881 22.0818 9.56296Z" fill="#BB6BD9"/>
</svg>
