<svg width="5" height="10" viewBox="0 0 5 10" fill="none" xmlns="http://www.w3.org/2000/svg">
<path d="M0.990782 9.19369L4.87326 5.32272C4.91935 5.27664 4.95207 5.22672 4.97142 5.17295C4.99078 5.11919 5.0003 5.06159 4.99999 5.00014C4.99999 4.9387 4.99032 4.8811 4.97096 4.82733C4.95161 4.77357 4.91904 4.72364 4.87326 4.67756L0.990782 0.795079C0.883255 0.687552 0.748847 0.633789 0.587557 0.633789C0.426267 0.633789 0.288018 0.691393 0.172811 0.8066C0.0576037 0.921807 4.72628e-08 1.05622 4.75905e-08 1.20983C4.79183e-08 1.36343 0.0576037 1.49784 0.172811 1.61305L3.5599 5.00014L0.172811 8.38723C0.0652842 8.49476 0.0115205 8.62733 0.0115205 8.78493C0.0115205 8.94253 0.0691241 9.07879 0.184331 9.19369C0.299539 9.30889 0.433947 9.3665 0.587557 9.3665C0.741166 9.3665 0.875575 9.30889 0.990782 9.19369Z" fill="white"/>
</svg>
