<svg width="1600" height="824" viewBox="0 0 1600 824" fill="none" xmlns="http://www.w3.org/2000/svg">
<path d="M-97.5938 76.4702C-16.703 117.032 54.964 173.824 112.939 243.304C198.383 346.979 193.735 410.494 275.803 469.72C355.567 527.238 465.044 543.087 553.865 521.359C675.06 491.687 680.542 410.931 835.899 283.026C927.262 207.871 1098.59 66.778 1300.66 80.4424C1402.75 87.3541 1504.24 133.194 1598.58 175.776C1714.22 227.971 1730.82 254.783 1793.23 267.137C1867.35 281.834 1981.95 271.387 2146.76 140.026" stroke="#B195FF" stroke-opacity="0.5" stroke-miterlimit="10"/>
<path d="M-99.8574 91.3271C-26.9672 126.962 38.7433 175.705 93.9913 235.122C99.2744 240.881 104.558 246.8 109.881 252.877C196.199 353.295 192.783 413.951 273.818 471.707C309.141 496.98 349.136 514.979 391.478 524.657C421.806 531.561 452.911 534.446 483.993 533.237C507.235 532.32 530.301 528.789 552.753 522.71C577.772 516.28 601.556 505.757 623.143 491.568C662.866 465.352 690.672 429.959 733.454 385.55C765.68 352.127 800.741 321.559 838.243 294.189C858.105 279.491 881.303 261.775 908.116 243.622C979.856 194.923 1071.66 142.013 1181.81 123.74C1219.18 117.363 1257.16 115.231 1295.02 117.385C1300.82 117.703 1306.58 118.179 1312.26 118.735C1368.51 124.177 1422.09 138.597 1476.83 157.743C1517.79 171.884 1556.52 189.52 1594.93 206.085C1611.02 213.155 1625.4 219.59 1638.39 225.628C1716.84 262.212 1737.22 281.835 1790.8 290.415C1831.52 296.929 1884.19 295.777 1951.05 272.58C2005.86 253.592 2070.77 219.392 2146.76 162.827" stroke="#B195FF" stroke-opacity="0.5" stroke-miterlimit="10"/>
<path d="M-101.963 106.263C-29.8276 140.551 35.4783 187.658 90.7735 245.29C96.07 250.852 101.366 256.545 106.663 262.371C194.054 359.571 191.948 417.288 271.871 473.693C307.278 499.297 347.401 517.643 389.928 527.676C420.436 534.625 451.745 537.404 482.999 535.938C506.277 534.751 529.325 530.75 551.641 524.021C576.536 516.826 600.19 505.883 621.792 491.568C663.104 464.557 692.42 430.317 734.725 388.847C767.102 357.371 802.568 329.238 840.587 304.874C860.448 291.845 883.13 275.877 909.665 260.067C980.372 217.922 1066.57 173.711 1175.61 159.292C1213.28 154.102 1251.35 152.4 1289.34 154.207C1295.22 154.525 1301.02 154.922 1306.74 155.439C1363.94 160.444 1416.17 172.797 1472.02 189.838C1514.09 202.708 1552.46 220.027 1591.19 236.353C1607.28 243.106 1621.82 249.263 1635.13 255.022C1713.82 289.223 1734.91 307.257 1788.3 313.613C1828.98 318.459 1881.25 315.797 1948.46 292.322C2003.36 273.096 2069.1 239.531 2146.76 185.707" stroke="#B195FF" stroke-opacity="0.5" stroke-miterlimit="10"/>
<path d="M-104.465 120.96C-32.9194 153.949 32.1201 199.519 87.5566 255.499C92.8397 260.901 98.1626 266.383 103.446 271.984C191.989 365.927 190.995 420.783 269.846 475.679C307.186 501.658 343.969 520.367 388.26 530.734C418.972 537.741 450.514 540.415 481.967 538.679C505.289 537.213 528.322 532.726 550.489 525.332C575.273 517.378 598.83 506.015 620.482 491.568C663.303 463.763 694.088 430.754 735.957 392.263C768.514 362.717 804.416 337.081 842.931 315.877C862.991 304.516 884.998 290.296 911.215 276.83C981.247 240.842 1061.49 205.608 1169.41 194.962C1207.38 190.975 1245.59 189.714 1283.74 191.189C1289.66 191.467 1295.65 191.824 1301.22 192.301C1357.34 196.898 1412.89 206.888 1467.1 222.132C1510.28 233.692 1548.33 250.852 1587.54 266.741C1603.63 273.255 1618.29 279.094 1631.95 284.576C1710.84 316.354 1732.69 332.719 1785.84 336.969C1826.51 340.227 1878.51 335.937 1945.96 312.183C2000.98 292.957 2067.43 259.63 2146.76 208.349" stroke="#B195FF" stroke-opacity="0.5" stroke-miterlimit="10"/>
<path d="M-106.77 135.776C-35.9155 167.483 28.781 211.456 84.3383 265.668C89.6214 270.911 94.984 276.155 100.227 281.557C189.724 372.402 190.121 424.041 267.859 477.705C306.033 503.962 341.585 523.187 386.671 533.793C417.559 540.868 449.311 543.424 480.934 541.38C504.362 539.681 527.438 534.721 549.496 526.643C574.113 517.995 597.547 506.291 619.249 491.807C663.58 463.167 696.034 431.508 737.306 395.639C766.423 370.376 800.863 348.29 845.393 326.84C865.612 317.069 887.142 304.556 912.922 293.474C982.676 263.483 1056.56 237.465 1163.18 230.593C1201.39 227.775 1239.72 226.94 1278.02 228.091C1284.02 228.329 1289.93 228.647 1295.61 229.044C1351.84 232.731 1407.65 241.182 1462.45 254.307C1506.82 264.556 1544.32 281.597 1583.92 296.929C1599.81 303.206 1614.87 308.846 1628.85 313.97C1707.9 343.524 1730.5 358.022 1783.49 360.127C1824.17 361.756 1875.81 355.917 1943.54 331.925C1998.55 312.421 2065.81 279.69 2146.76 231.03" stroke="#B195FF" stroke-opacity="0.5" stroke-miterlimit="10"/>
<path d="M-109.033 150.593C-38.8868 181.039 25.4505 223.414 81.1212 275.837C86.4044 280.882 91.767 285.887 97.0105 291.051C187.579 378.439 189.208 427.496 265.794 479.652C304.802 506.226 339.123 525.968 384.963 536.812C416.057 543.948 448.045 546.385 479.862 544.041C503.295 542.097 526.309 536.675 548.146 527.954C572.616 518.575 595.949 506.462 617.701 491.846C663.581 462.452 697.743 432.263 738.34 399.016C768.331 374.547 803.525 355.321 847.539 337.764C867.996 329.581 889.049 318.856 914.273 309.958C984.305 285.728 1051.4 269.164 1156.9 265.986C1193.57 264.874 1234.12 263.483 1272.3 264.794C1278.38 264.993 1284.21 265.271 1290.01 265.589C1346.26 268.362 1402.22 275.266 1457.45 286.244C1502.93 295.182 1540.15 312.103 1580.19 327.118C1596.28 333.156 1611.25 338.36 1625.59 343.285C1704.8 370.813 1728.28 384.318 1780.91 383.484C1821.59 382.849 1872.91 376.056 1940.88 351.706C1995.93 331.845 2064.02 299.789 2146.6 253.791" stroke="#B195FF" stroke-opacity="0.5" stroke-miterlimit="10"/>
<path d="M-111.338 165.372C-41.8862 194.587 22.1028 235.378 77.9029 286.008C83.1861 290.854 88.5884 295.66 93.7922 300.586C185.473 384.797 188.333 430.835 263.767 481.64C303.49 508.452 336.659 528.75 383.334 539.873C414.574 547.025 446.726 549.343 478.669 546.745C502.18 544.529 525.195 538.631 546.874 529.267C571.145 519.117 594.361 506.61 616.191 491.928C663.58 461.699 699.609 432.821 739.332 402.354C770.237 378.521 806.226 362.394 849.643 348.69C870.418 342.096 893.021 338.282 915.583 326.803C988.793 323.744 1046.39 295.025 1150.43 301.778C1187.17 304.201 1228.36 300.824 1266.38 301.778C1272.54 301.976 1278.49 302.175 1284.21 302.453C1345.47 305.353 1392.34 308.729 1452.4 318.342C1499 325.929 1535.82 342.771 1576.3 357.309C1592.19 363.109 1607.48 368.034 1622.18 372.682C1701.43 397.786 1725.74 408.432 1778.29 406.446C1819.01 404.817 1870.01 395.84 1938.21 371.292C1993.35 351.43 2062.15 319.653 2146.44 276.316" stroke="#B195FF" stroke-opacity="0.5" stroke-miterlimit="10"/>
<path d="M-113.641 180.188C-44.8916 208.171 18.7459 247.351 74.6865 296.137C80.0094 300.824 85.4118 305.392 90.5758 310.08C183.568 391.034 187.619 434.132 261.901 483.626C302.618 510.717 334.396 531.531 381.825 542.931C413.336 550.173 445.798 552.359 477.995 549.406C504.173 547.221 525.663 539.356 546.08 530.538C570.171 519.637 593.304 506.735 615.238 491.968C664.137 460.945 702.192 433.576 741.002 405.691C772.78 382.771 809.723 369.544 852.226 359.574C873.438 354.608 895.524 353.456 917.412 343.446C990.622 349.087 1041.47 333.317 1144.47 337.329C1181.41 338.799 1223.08 337.925 1260.98 338.759C1267.17 338.759 1273.21 339.037 1278.89 339.236C1341.18 341.579 1386.7 342.771 1447.83 350.755C1495.5 357.031 1531.97 373.754 1572.88 387.856C1588.77 393.417 1604.18 398.025 1619.24 402.394C1698.69 425.354 1723.75 434.172 1776.11 429.922C1816.82 426.704 1867.47 416.178 1935.95 391.351C1991.13 371.49 2060.72 340.03 2146.68 299.355" stroke="#B195FF" stroke-opacity="0.5" stroke-miterlimit="10"/>
<path d="M-115.906 194.964C-47.8916 221.758 15.3734 259.311 71.4676 306.186C76.7905 310.714 82.2325 315.084 87.5952 319.493C181.54 397.19 186.903 437.309 259.914 485.452C301.464 512.821 332.011 534.192 380.235 545.791C411.897 553.113 444.544 555.207 476.881 551.987C503.416 549.564 524.549 541.064 544.848 531.729C569.913 520.209 590.529 506.704 613.767 492.007C664.215 460.229 709.857 441.122 742.152 409.027C778.737 393.416 812.939 363.624 854.608 370.496C876.297 374.071 897.907 368.59 919.039 360.089C992.289 374.389 1036.66 365.372 1138.35 372.919C1175.45 375.66 1217.8 375.025 1255.37 375.621C1261.69 375.621 1267.73 375.621 1273.45 375.978C1336.69 377.766 1380.9 376.653 1443.07 382.929C1491.97 387.815 1527.95 404.459 1569.27 418.123C1585.16 423.446 1600.73 427.776 1616.1 431.827C1695.55 452.682 1721.6 459.395 1773.76 453.158C1814.52 448.272 1864.85 436.197 1933.53 411.092C1988.78 390.993 2058.97 360.089 2146.76 322.075" stroke="#B195FF" stroke-opacity="0.5" stroke-miterlimit="10"/>
<path d="M-118.209 209.739C-50.8893 235.4 12.0191 271.397 68.2512 316.433C73.5741 320.763 79.0162 324.735 84.4185 329.065C179.754 403.504 185.99 440.645 257.929 487.477C300.353 515.084 329.629 537.011 378.608 548.888C410.469 556.244 443.337 558.217 475.85 554.727C502.742 552.065 523.518 542.81 543.737 533.078C568.325 521.161 588.703 507.02 612.418 492.045C664.376 459.393 712.401 442.551 743.504 412.323C781.36 398.42 817.707 370.535 857.072 381.379C878.602 387.298 900.331 383.762 920.629 376.731C993.918 399.691 1031.85 397.506 1132.19 408.509C1169.45 412.481 1212.12 412.164 1249.77 412.481H1267.93C1332.2 413.673 1375.18 410.376 1438.3 414.865C1488.35 418.4 1523.9 435.004 1565.65 448.192C1581.54 453.276 1597.23 457.288 1612.96 461.022C1692.41 479.85 1719.42 484.498 1771.38 476.196C1812.13 469.642 1862.15 456.017 1931.07 430.674C1986.36 410.376 2057.5 379.989 2146.8 344.596" stroke="#B195FF" stroke-opacity="0.5" stroke-miterlimit="10"/>
<path d="M-120.514 224.478C-53.9698 249.047 8.51919 283.444 64.874 326.524C70.2366 330.496 75.6787 334.468 81.081 338.441C177.449 409.583 185.036 443.744 255.863 489.385C299.161 517.191 327.364 539.713 376.939 551.828C408.978 559.279 442.062 561.147 474.737 557.35C502.027 554.45 522.405 544.678 542.504 534.311C566.616 521.759 586.796 507.26 610.987 492.046C664.494 458.6 714.863 443.943 744.536 415.621C783.703 403.386 820.01 399.017 859.217 392.224C881.7 396.514 902.435 398.858 922.059 393.337C995.348 425.114 1026.77 429.643 1125.84 443.983C1163.26 449.424 1206.48 449.703 1243.97 449.266C1250.41 449.266 1256.57 449.266 1262.25 449.266C1327.55 448.431 1369.1 444.3 1433.33 447.081C1484.58 449.266 1519.65 465.79 1561.88 478.541C1577.77 483.347 1593.66 487.121 1609.55 490.458C1688.99 507.26 1716.8 509.763 1768.68 499.395C1809.47 491.212 1859.13 476.038 1928.36 450.418C1983.7 429.961 2055.48 400.05 2146.56 367.279" stroke="#B195FF" stroke-opacity="0.5" stroke-miterlimit="10"/>
<path d="M-122.777 239.253C-56.8898 262.718 5.28851 295.519 61.8556 336.652C67.1785 340.624 72.6602 344.318 78.0626 348.052C175.702 415.858 184.401 447.08 253.956 491.33C298.128 519.453 324.862 542.492 375.39 554.886C407.704 562.424 441.101 564.159 474.022 560.01C501.829 556.872 521.889 546.504 541.552 535.62C565.385 522.552 585.247 507.577 609.836 491.926C664.812 457.685 717.604 445.213 745.927 418.797C786.365 408.271 823.228 406.881 861.72 402.908C884.481 409.264 904.899 413.792 923.807 409.741C997.096 450.059 1022.04 461.658 1119.8 479.334C1157.38 486.127 1201.11 486.603 1238.49 485.928C1245.01 485.928 1251.16 485.928 1256.88 485.928C1323.14 484.458 1363.42 477.983 1428.69 479.135C1481.04 479.97 1515.72 496.454 1558.38 508.729C1574.27 513.336 1590.16 516.673 1606.65 519.89C1686.09 534.747 1715.01 535.064 1766.53 522.631C1807.33 512.78 1856.66 496.097 1926.14 470.198C1981.51 449.582 2054.25 420.148 2146.84 390.038" stroke="#B195FF" stroke-opacity="0.5" stroke-miterlimit="10"/>
<path d="M-125.082 253.991C-59.9021 276.411 1.90919 307.63 58.6373 346.782C63.9999 350.755 69.4817 354.012 74.884 357.547C173.834 421.976 183.646 450.259 251.97 493.278C297.016 521.6 322.478 545.195 373.8 557.866C406.233 565.452 439.775 567.081 472.79 562.673C500.596 559.256 520.776 548.293 540.32 536.853C563.518 523.268 583.22 507.816 608.405 492.126C664.931 457.051 720.066 446.803 747.078 422.255C788.827 413.396 826.087 414.747 863.983 414.032C886.983 422.413 907.123 429.166 925.276 426.584C998.605 475.601 1017.04 494.112 1113.52 515.125C1151.26 523.308 1195.51 523.387 1232.69 523.069C1239.29 523.069 1245.48 523.069 1251.2 523.069C1318.49 520.964 1357.46 513.973 1423.76 511.709C1477.23 509.882 1511.51 527.598 1554.61 539.515C1570.66 543.841 1586.93 547.289 1603.35 549.842C1682.8 562.792 1712.67 560.885 1763.99 546.386C1804.82 534.867 1853.8 516.674 1923.52 490.497C1979.13 469.723 2052.46 440.725 2146.72 413.277" stroke="#B195FF" stroke-opacity="0.5" stroke-miterlimit="10"/>
<path d="M-127.387 260.227C-62.906 281.691 -1.46367 311.383 55.4189 348.569C60.7816 352.144 66.3031 355.401 71.7451 358.698C171.966 419.751 182.97 445.094 249.983 486.842C295.903 515.442 320.094 539.593 372.171 552.503C404.8 560.165 438.57 561.687 471.757 556.992C500.119 553.298 519.861 541.778 539.286 529.782C561.888 515.403 581.273 499.514 607.054 483.625C665.089 447.875 722.648 439.652 748.309 417.05C791.329 409.861 829.026 414.071 866.326 416.375C889.564 426.822 909.386 435.76 926.824 434.687C1000.19 492.364 1012.15 518.104 1107.29 541.937C1145.22 551.51 1189.99 551.709 1227.09 551.113L1245.68 550.755C1314.01 549.564 1351.62 537.25 1418.95 534.866C1473.65 532.88 1507.42 549.365 1550.95 560.686C1567.18 564.79 1583.62 567.959 1600.21 570.179C1679.46 581.222 1710.48 577.012 1761.57 560.487C1802.44 547.3 1851.1 527.597 1921.05 501.142C1976.67 480.209 2050.83 451.688 2146.76 426.901" stroke="#B195FF" stroke-opacity="0.5" stroke-miterlimit="10"/>
<path d="M-129.77 262.731C-66.011 283.104 -4.95027 311.113 52.0828 346.148C57.4851 349.564 63.0066 352.583 68.4487 355.641C170.14 413.397 182.096 435.96 247.997 476.317C294.831 505.116 317.711 529.863 370.583 543.051C403.421 550.724 437.421 552.072 470.764 547.023C499.444 543.051 518.948 531.134 538.095 518.423C560.3 503.845 579.566 487.4 605.624 471.233C665.209 434.569 725.111 428.651 749.461 407.955C793.792 402.434 833.317 403.308 868.631 414.867C893.934 423.169 911.651 438.7 928.215 438.7C1001.58 505.037 1007.03 538.006 1100.89 565.057C1138.95 576.1 1184.31 576.378 1221.21 575.543C1227.97 575.543 1234.24 575.226 1239.92 575.067C1309.28 573.24 1345.55 558.662 1413.95 554.53C1469.76 551.154 1503.13 567.639 1547.1 578.364C1563.48 582.295 1580.09 585.187 1596.83 587.023C1676.04 596.239 1708.06 589.685 1758.94 571.134C1799.82 556.238 1848.16 535.027 1918.35 508.333C1973.97 487.241 2048.96 459.197 2146.56 436.833" stroke="#B195FF" stroke-opacity="0.5" stroke-miterlimit="10"/>
<path d="M-131.953 265.153C-68.8908 284.561 -8.19981 310.969 48.9855 343.883C54.4276 347.1 59.9888 349.881 65.3912 352.741C168.353 406.922 181.383 426.465 246.012 465.79C293.68 494.787 315.289 520.13 369.154 533.556C402.163 541.458 436.402 542.808 469.931 537.529C499.008 533.278 518.234 520.647 537.143 507.578C558.911 492.523 577.938 475.522 604.672 459.117C665.726 421.659 728.012 417.965 751.091 399.136C796.654 395.164 836.973 399.573 871.293 413.635C897.074 424.201 914.274 441.441 930.242 443.387C1003.61 518.422 1002.54 558.581 1095.17 588.691C1133.39 601.203 1179.19 601.521 1216.05 600.607L1234.88 599.972C1305.23 597.549 1340.18 580.667 1409.66 574.867C1466.66 570.061 1499.55 586.784 1544 596.913C1560.54 600.706 1577.32 603.36 1594.21 604.858C1673.34 612.286 1706.39 603.348 1757.08 582.772C1797.95 566.208 1845.94 543.487 1916.41 516.516C1991 486.839 2068.09 463.868 2146.76 447.876" stroke="#B195FF" stroke-opacity="0.5" stroke-miterlimit="10"/>
<path d="M-134.258 265.946C-71.8786 284.483 -11.5569 309.346 45.7672 340.147C51.249 343.166 56.8103 345.748 62.2126 348.37C166.565 399.095 180.627 415.898 244.025 453.872C292.646 483.068 312.905 509.007 367.365 522.711C400.584 530.647 435.061 531.809 468.739 526.127C498.134 521.599 517.121 508.411 535.831 494.786C557.123 479.255 575.912 461.737 603.042 445.094C665.646 406.841 730.156 405.371 752.044 388.41C798.917 386.265 839.872 393.971 873.358 410.456C899.575 423.365 916.299 442.591 931.513 445.967C1004.92 529.662 997.294 577.051 1088.66 610.219C1127.03 624.201 1173.39 624.519 1210.09 623.287C1216.96 623.049 1223.36 622.731 1229.04 622.493C1300.54 619.434 1334.03 600.328 1404.5 592.82C1462.61 586.624 1495.1 603.188 1539.99 612.999C1556.69 616.566 1573.63 618.903 1590.68 619.99C1669.77 625.671 1703.81 614.27 1754.3 591.708C1795.17 573.436 1842.84 549.245 1913.55 521.956C1988.8 492.119 2066.96 470.219 2146.76 456.613" stroke="#B195FF" stroke-opacity="0.5" stroke-miterlimit="10"/>
<path d="M-136.562 263.684C-74.8545 281.334 -14.8987 304.616 42.5489 333.237C48.0307 336.057 53.6317 338.441 59.034 340.864C164.817 388.014 180.07 401.837 242.038 438.779C291.573 468.174 310.521 494.748 365.776 508.651C399.178 516.678 433.877 517.733 467.705 511.749C497.458 506.903 516.207 493.199 534.678 479.018C555.533 463.129 574.084 444.976 601.691 428.094C665.804 389.047 732.777 389.722 753.275 374.707C801.419 374.231 842.93 385.432 875.701 404.34C902.236 419.673 918.602 440.726 933.101 445.572C1006.51 537.966 992.288 592.544 1082.46 628.731C1120.91 644.222 1167.86 644.62 1204.45 643.11C1211.36 642.832 1217.8 642.475 1223.48 642.197C1295.89 638.542 1328.07 617.092 1399.57 607.916C1458.84 600.29 1490.93 616.894 1536.18 626.228C1553.06 629.584 1570.18 631.643 1587.38 632.385C1666.43 636.357 1701.42 622.455 1751.71 597.906C1792.59 578.045 1839.98 552.226 1910.92 524.698C1986.72 494.559 2065.86 473.609 2146.64 462.295" stroke="#B195FF" stroke-opacity="0.5" stroke-miterlimit="10"/>
<path d="M-138.826 261.418C-77.7943 278.253 -18.216 299.972 39.3319 326.364C44.8534 328.985 50.4544 331.091 55.8567 333.315C163.109 377.01 178.998 387.933 240.053 423.683C290.461 453.237 308.138 480.446 364.148 494.627C397.746 502.772 432.688 503.706 466.673 497.368C496.783 492.164 515.294 478.023 533.567 463.247C553.984 446.762 572.257 428.212 600.341 411.091C666.003 371.369 735.4 374.07 754.506 360.962C798.358 361.483 841.169 374.386 878.006 398.182C904.819 415.977 920.906 438.817 934.651 445.173C1008.1 546.226 987.244 608.034 1076.26 647.24C1114.79 664.281 1162.34 664.599 1198.77 662.93C1205.8 662.612 1212.24 662.215 1217.96 661.858C1291.32 657.488 1322.31 634.052 1394.84 623.009C1455.18 613.992 1486.96 630.596 1532.64 639.454C1548.53 642.513 1565.29 642.99 1584.28 644.737C1663.01 652.007 1699.28 630.636 1749.37 604.062C1790.25 582.374 1837.32 555.204 1908.5 527.398C1984.92 496.96 2065.09 476.919 2146.84 467.815" stroke="#B195FF" stroke-opacity="0.5" stroke-miterlimit="10"/>
<path d="M-141.129 259.155C-80.7436 275.196 -21.5243 295.343 36.1155 319.454C41.6767 321.837 47.2777 323.783 52.7198 325.769C161.323 365.492 178.443 374.032 238.068 408.59C289.43 438.342 305.597 466.148 362.56 480.607C396.41 488.857 431.646 489.67 465.84 482.99C496.268 477.429 514.54 462.811 532.614 447.478C552.476 430.517 570.59 411.45 599.151 394.092C666.362 353.416 738.181 358.342 755.898 347.259C800.921 349.62 844.231 365.283 880.35 392.264C907.322 412.483 923.211 437.151 936.201 444.976C1009.69 554.689 982.161 623.726 1070.03 665.99C1108.68 684.541 1156.78 684.819 1193.17 682.952C1200.24 682.594 1206.75 682.118 1212.44 681.76C1286.84 676.715 1316.47 650.856 1390.08 638.304C1451.61 627.857 1482.79 644.58 1529.11 652.882C1546.4 655.288 1563.81 656.773 1581.26 657.331C1660.11 662.455 1697.18 639.019 1747.11 610.459C1787.94 587.062 1834.74 558.422 1906 530.339C1982.99 499.665 2064.12 480.627 2146.72 473.854" stroke="#B195FF" stroke-opacity="0.5" stroke-miterlimit="10"/>
<path d="M-143.434 256.89C-83.6676 272.177 -24.7884 290.742 32.9369 312.501C38.4981 314.685 44.0991 316.473 49.5412 318.181C159.574 354.408 177.728 360.048 236.24 393.653C288.356 423.365 303.213 451.846 360.93 466.544C394.922 474.912 430.349 475.618 464.647 468.609C495.433 462.69 513.507 447.596 531.303 431.707C550.847 414.309 568.603 394.686 597.68 377.089C666.361 335.619 740.683 342.849 756.97 333.395C803.293 337.505 847.209 355.848 882.693 385.907C909.745 408.629 925.475 435.044 937.749 444.339C1011.24 562.751 977.036 639.256 1063.83 684.301C1102.56 704.4 1151.22 704.639 1187.45 702.573C1194.6 702.176 1201.15 701.659 1206.83 701.222C1282.31 695.502 1310.55 667.419 1385.23 653.198C1447.91 641.282 1478.66 658.124 1525.33 665.909C1542.79 668.184 1560.36 669.391 1577.97 669.524C1656.94 672.503 1694.79 647.002 1744.53 616.415C1785.4 591.351 1831.92 561.202 1903.42 532.999C1981.03 502.051 2063.17 483.978 2146.6 479.493" stroke="#B195FF" stroke-opacity="0.5" stroke-miterlimit="10"/>
<path d="M-145.658 254.627C-77.6125 271.906 -16.5581 289.503 29.759 305.63C35.3997 307.616 41.0006 309.126 46.4029 310.715C157.906 343.128 177.052 346.147 234.134 378.243C287.324 408.273 301.028 437.389 359.381 452.364C393.56 460.834 429.217 461.418 463.654 454.072C494.797 447.756 512.673 432.265 530.23 415.78C549.297 397.905 566.815 377.766 596.369 359.931C666.6 317.666 743.345 327.08 758.241 319.692C805.834 325.595 850.284 346.588 885.077 379.593C912.168 404.817 929.527 431.431 939.378 443.784C1030.74 558.701 971.911 654.749 1057.67 702.654C1096.44 724.342 1145.78 724.501 1181.85 722.237C1189.08 721.8 1195.63 721.204 1201.35 720.728C1277.74 714.332 1304.63 684.024 1380.42 668.175C1444.26 654.789 1474.57 671.71 1521.72 678.94C1539.29 681.546 1557.08 682.491 1574.83 681.76C1653.84 679.059 1692.57 654.987 1742.14 622.455C1782.98 595.642 1829.14 564.023 1901.03 535.423C1979.31 504.218 2062.49 487.099 2146.72 484.857" stroke="#B195FF" stroke-opacity="0.5" stroke-miterlimit="10"/>
<path d="M-148.002 252.361C-79.2016 269.124 -18.5444 285.013 26.5016 298.717C32.182 300.465 37.7829 301.776 43.1853 303.166C156.237 331.766 176.297 332.203 232.108 363.266C286.251 393.455 298.605 423.286 357.713 438.5C392.104 447.081 428.02 447.543 462.621 439.85C494.082 433.097 511.719 417.209 529.038 400.128C547.708 381.776 564.789 361.121 594.979 343.047C666.719 299.949 745.648 311.587 759.472 306.066C814.052 314.01 856.952 342.451 887.38 373.594C914.432 401.399 931.552 430.118 940.887 443.505C1029.27 570.099 966.707 670.517 1051.4 721.322C1090.21 744.559 1140.22 744.639 1176.13 742.176C1183.44 741.66 1190.07 741.064 1195.75 740.547C1273.17 733.437 1298.75 700.825 1375.58 683.387C1440.52 668.571 1470.4 685.612 1517.98 692.285C1535.74 694.691 1553.69 695.343 1571.57 694.231C1650.62 689.981 1690.26 663.288 1739.68 628.729C1780.47 600.209 1826.35 567.12 1898.57 538.242C1954.54 515.879 2035.89 491.608 2146.76 490.575" stroke="#B195FF" stroke-opacity="0.5" stroke-miterlimit="10"/>
<path d="M-150.307 250.099C-80.7912 266.464 -20.5313 280.446 23.2833 291.847C29.0034 293.316 34.6043 294.429 40.0067 295.819C154.369 320.328 175.582 318.222 230.121 348.173C284.661 378.123 296.221 408.988 356.123 424.439C390.695 433.167 426.851 433.521 461.588 425.472C493.366 418.243 510.845 402.036 527.925 384.399C546.158 365.611 563.12 344.399 593.627 326.087C666.917 282.393 748.23 296.018 760.703 292.403C816.593 302.016 859.534 333.793 889.723 367.478C916.695 397.587 933.419 428.61 942.436 442.95C1027.4 580.985 961.463 686.05 1045.2 739.675C1084.01 764.541 1134.66 764.501 1170.49 761.84C1177.83 761.284 1184.51 760.609 1190.35 760.053C1268.76 752.108 1293.03 717.47 1370.89 698.324C1436.99 682.078 1466.46 699.238 1514.49 705.355C1532.42 707.573 1550.54 707.946 1568.55 706.467C1647.64 700.628 1688.12 671.313 1737.41 634.769C1778.17 604.54 1823.77 569.982 1896.31 540.826C1952.36 518.303 2034.46 494.47 2147 496.178" stroke="#B195FF" stroke-opacity="0.5" stroke-miterlimit="10"/>
<path d="M-152.57 247.833C-82.3796 263.722 -22.5169 275.877 20.0663 285.013C25.8261 286.244 31.4271 287.198 36.8294 288.151C152.582 308.846 174.867 304.239 228.136 333.117C284.185 363.464 293.798 394.686 354.495 410.416C389.263 419.296 425.677 419.528 460.556 411.091C492.652 403.346 509.971 386.821 526.814 368.668C544.61 349.363 561.293 327.675 592.317 309.085C667.076 264.397 751.408 274.606 761.935 278.697C816.276 299.71 862.077 325.053 892.068 361.359C918.92 393.892 935.485 427.06 944.025 442.75C1025.26 591.907 956.181 701.977 1039 758.422C1077.81 784.877 1129.13 784.679 1164.81 781.859C1172.27 781.263 1178.95 780.548 1184.67 779.952C1264.11 771.451 1286.99 734.43 1365.92 713.616C1433.14 695.9 1462.17 713.219 1510.68 718.78C1528.79 720.804 1547.08 720.897 1565.22 719.058C1644.34 711.669 1685.7 679.693 1734.79 641.162C1775.55 609.385 1820.87 573.158 1893.69 543.724C1949.77 521.042 2032.72 497.726 2146.88 502.055" stroke="#B195FF" stroke-opacity="0.5" stroke-miterlimit="10"/>
<path d="M-154.873 245.571C-83.9673 261.182 -24.5416 271.192 16.8499 278.024C22.6495 278.977 28.2504 279.772 33.6925 280.526C150.796 297.289 174.193 290.258 226.151 317.984C283.352 348.571 291.297 380.348 352.907 396.237C387.877 405.231 424.541 405.34 459.564 396.555C491.898 388.253 509.098 371.49 525.663 352.861C543.062 332.999 559.467 310.874 590.968 292.086C667.276 246.604 753.395 263.803 763.167 264.955C822.752 272.066 864.58 316.276 894.254 355.204C914.324 382.361 931.473 411.56 945.417 442.315C1022.88 602.316 950.74 717.669 1032.81 776.935C1071.58 804.979 1123.61 804.741 1159.17 801.682C1166.67 801.046 1173.43 800.252 1179.03 799.616C1259.43 790.282 1281 751.076 1361.04 728.712C1429.32 709.487 1458 727.084 1506.94 732.009C1525.25 733.838 1543.7 733.638 1561.96 731.413C1641.17 722.476 1683.27 687.719 1732.29 647.321C1772.97 613.597 1818.01 576.139 1891.18 546.467C1947.35 523.626 2031.01 500.746 2146.88 507.738" stroke="#B195FF" stroke-opacity="0.5" stroke-miterlimit="10"/>
<path d="M-157.178 243.305C-85.6762 258.24 -26.6079 266.423 13.6316 271.11C146.783 286.602 171.173 275.082 224.164 302.888C282.16 333.355 289.032 366.086 351.278 382.332C386.444 391.477 423.364 391.477 458.53 382.332C525.186 364.06 527.013 312.342 589.616 275.082C667.434 228.766 755.897 249.144 764.398 251.249C877.688 279.055 930.52 403.425 947.124 441.916C1020.73 612.404 945.535 733.358 1026.57 795.444C1073.6 831.472 1141.29 823.249 1173.55 819.277C1254.94 809.346 1275.2 767.876 1356.27 743.805C1447.64 716.635 1467.77 755.721 1558.86 743.805C1704.17 724.619 1727.48 615.105 1888.56 549.166C1944.77 526.167 2029.22 503.763 2146.76 513.416" stroke="#B195FF" stroke-opacity="0.5" stroke-miterlimit="10"/>
<path d="M-155.033 248.272C-84.8028 263.208 -26.7276 272.105 13.5119 277.031C143.128 293.396 168.432 282.592 221.105 310.437C278.028 340.626 285.615 372.404 346.312 388.769C380.743 397.866 416.886 398.33 451.538 390.12C517.32 374.589 519.862 324.141 581.512 288.312C657.662 243.744 743.463 262.294 753.394 263.923C846.306 278.977 897.549 370.537 922.773 419.395C927.937 429.366 931.671 437.946 934.69 444.142C1010.16 605.534 938.901 721.761 1018.74 780.391C1066.41 815.307 1134.66 806.528 1168.26 802.754C1199.06 799.374 1228.91 790.067 1256.17 775.346C1283.98 761.404 1309.99 745.674 1352.78 735.227C1365.88 732.049 1377.56 730.301 1388.05 728.792C1451.61 719.616 1476.12 742.218 1552.7 728.593C1582.33 723.392 1610.86 713.197 1637.07 698.444C1708.22 658.722 1752.71 587.222 1862.86 535.027C1869.32 531.955 1876.07 528.962 1883.12 526.049C1939.84 502.454 2025.57 478.979 2144.89 487.996" stroke="#B195FF" stroke-opacity="0.5" stroke-miterlimit="10"/>
<path d="M-152.887 253.236C-84.0863 268.171 -26.8453 277.427 13.4339 282.908C139.436 300.108 165.534 290.098 218.048 318.023C273.938 347.576 282.2 379.076 341.189 395.163C374.913 404.235 410.306 405.188 444.469 397.944C509.258 384.955 512.713 336.136 573.371 301.498C647.891 258.956 731.429 272.66 742.313 276.592C828.274 307.377 884.045 376.891 910.024 422.929C915.307 432.304 918.962 440.526 921.941 446.326C999.163 598.819 932.11 710.041 1010.68 765.335C1058.75 799.099 1127.75 789.804 1162.7 786.189C1193.74 783.003 1223.99 774.469 1252.12 760.965C1280.36 748.373 1306.78 734.749 1349.04 726.685C1362.19 724.143 1373.95 723.189 1384.44 721.68C1447.8 712.504 1471.23 730.339 1546.27 713.338C1575.56 706.589 1603.6 695.276 1629.37 679.813C1697.85 640.091 1744.57 566.088 1856.94 512.145C1863.5 509.047 1870.33 505.949 1877.44 502.93C1934.64 478.739 2021.63 454.191 2142.79 462.532" stroke="#B195FF" stroke-opacity="0.5" stroke-miterlimit="10"/>
<path d="M-150.742 258.203C-83.3718 273.098 -27.0048 282.91 13.2347 288.987C135.661 306.902 162.633 297.806 214.909 325.73C269.727 354.807 278.704 385.711 336.263 401.719C369.262 410.712 403.875 412.07 437.477 405.691C501.034 395.165 505.602 347.975 565.267 314.688C638.158 274.012 719.035 284.419 731.309 289.186C799.566 316.543 857.593 364.502 897.312 426.386C902.714 435.165 906.329 443.03 909.229 448.472C988.119 591.75 925.356 698.404 1002.54 750.361C1051.16 783.013 1120.79 773.122 1157.1 769.745C1188.39 766.693 1219.03 758.911 1247.99 746.667C1276.75 735.425 1303.6 723.946 1345.23 718.186C1358.5 716.359 1370.29 716.16 1380.78 714.651C1444.06 705.435 1466.23 718.623 1539.67 698.166C1568.56 689.833 1596.12 677.42 1621.5 661.304C1687.32 621.303 1736.46 545.196 1850.82 489.346C1857.42 486.168 1864.33 483.004 1871.56 479.853C1929.24 455.106 2017.54 429.485 2140.49 437.191" stroke="#B195FF" stroke-opacity="0.5" stroke-miterlimit="10"/>
<path d="M-148.598 263.126C-82.6573 278.062 -27.1244 288.389 13.1945 294.904C132.046 313.533 159.932 305.351 211.81 333.315C265.516 361.955 275.367 392.183 331.178 408.152C363.484 417.191 397.372 419.089 430.485 413.713C493.129 405.768 498.491 360.088 557.202 328.112C628.465 288.985 705.727 304.556 720.305 301.895C804.319 318.856 857.151 389.284 884.639 429.959C890.161 438.102 893.696 445.57 896.795 450.694C977.433 584.876 918.96 686.684 994.712 735.225C1043.97 766.764 1114.12 756.317 1151.82 753.1C1183.38 750.195 1214.43 743.171 1244.17 732.206C1273.49 722.315 1300.66 713.02 1341.77 709.524C1355.12 708.372 1366.96 708.968 1377.52 707.459C1440.72 698.243 1461.62 706.625 1533.71 682.871C1564.26 672.781 1589.33 658.322 1614.27 642.592C1677.51 602.513 1728.83 523.863 1845.38 466.385C1852 463.127 1858.99 459.883 1866.36 456.653C1924.55 431.27 2014.13 404.577 2138.86 411.647" stroke="#B195FF" stroke-opacity="0.5" stroke-miterlimit="10"/>
<path d="M-146.492 268.093C-82.1011 282.989 -27.2832 293.833 13.2343 300.586C128.431 319.891 157.032 312.82 208.91 340.626C261.504 368.908 271.951 398.421 326.371 414.31C357.926 423.345 391.018 425.699 423.534 421.222C484.986 415.343 491.421 371.688 549.139 341.063C618.733 304.161 693.174 318.341 709.382 314.488C790.893 329.901 843.685 395.442 872.008 433.417C877.648 440.964 881.144 448.074 884.322 452.841C966.668 577.847 912.605 674.848 986.847 720.092C1036.74 750.519 1107.45 739.476 1146.45 736.497C1186.18 733.478 1214.18 725.256 1240.32 717.788C1270.19 709.248 1298 696.854 1338.24 700.866C1350.13 702.148 1362.14 701.948 1373.99 700.271C1437.15 691.055 1456.69 694.829 1527.4 667.539C1556.99 656.139 1581.62 640.449 1606.85 623.845C1667.5 583.805 1721.01 502.732 1839.7 443.387C1846.4 440.05 1853.47 436.714 1860.91 433.377C1919.59 407.438 2010.43 379.673 2136.99 386.068" stroke="#B195FF" stroke-opacity="0.5" stroke-miterlimit="10"/>
<path d="M-144.348 273.098C-81.2277 287.993 -27.4029 299.354 12.9558 306.544C124.697 326.405 154.211 320.367 205.851 348.252C257.491 376.137 268.574 404.896 321.366 420.825C367.365 434.688 405.698 431.708 416.701 429.127C475.372 415.224 484.429 383.645 541.193 354.369C609.12 319.334 680.82 332.244 698.537 327.239C777.506 341.142 830.219 401.639 859.495 436.992C865.215 443.943 868.671 450.696 871.888 455.145C955.942 570.975 906.408 663.051 979.141 705.156C1029.75 734.471 1100.89 722.833 1141.29 720.052C1181.69 717.272 1210.01 709.804 1236.63 703.488C1267.01 696.298 1295.77 685.533 1334.86 692.405C1346.66 694.587 1358.73 694.869 1370.61 693.24C1433.69 684.024 1451.92 683.19 1521.2 652.405C1549.88 639.694 1573.95 622.733 1599.22 605.414C1657.33 565.692 1713.06 481.878 1833.86 420.666C1840.62 417.25 1847.77 413.833 1855.31 410.417C1914.5 383.883 2006.62 355.045 2134.96 360.765" stroke="#B195FF" stroke-opacity="0.5" stroke-miterlimit="10"/>
<path d="M-142.201 277.942C-80.5112 292.957 -27.5603 304.874 12.8381 312.342C121.004 332.68 151.392 327.794 202.794 355.679C253.242 383.087 265.159 411.29 316.402 427.179C361.13 441.042 398.39 439.334 409.553 436.871C467.072 424.08 477.082 395.48 532.933 367.556C599.191 334.348 667.991 346.066 687.376 339.75C763.843 352.104 816.357 407.278 846.626 440.367C851.094 445.75 855.283 451.358 859.178 457.169C944.861 563.823 899.974 650.934 970.959 689.941C1022.32 718.104 1093.9 705.83 1135.65 703.328C1175.81 700.865 1205.33 694.072 1232.46 688.948C1263.4 683.109 1293.11 674.251 1331.01 683.665C1342.74 686.772 1354.97 687.555 1367 685.969C1430.04 676.714 1446.92 671.351 1514.81 636.992C1542.61 622.97 1566.05 604.816 1591.51 586.624C1647.13 546.901 1705.04 460.704 1827.94 397.625C1834.75 394.13 1841.98 390.634 1849.63 387.139C1909.22 360.008 2002.69 330.098 2132.86 335.182" stroke="#B195FF" stroke-opacity="0.5" stroke-miterlimit="10"/>
<path d="M-140.057 282.828C-79.7967 297.763 -27.7197 310.077 12.7581 318.18C117.309 339.074 148.571 335.301 199.933 363.186C249.309 390.157 261.941 417.645 311.595 433.454C355.29 447.317 391.279 446.88 402.759 444.537C459.166 432.978 470.289 407.238 525.027 380.624C589.617 349.283 655.756 359.77 676.571 352.381C750.495 363.186 802.731 413.434 834.152 443.742C838.661 448.681 842.891 453.866 846.824 459.274C934.215 556.712 893.975 638.778 963.212 674.767C1015.33 701.818 1087.31 688.987 1130.41 686.683C1170.92 684.459 1201.11 678.381 1228.72 674.449C1261.54 669.936 1294.83 670.11 1327.59 674.965C1341.57 676.753 1353.33 680.248 1363.7 678.938C1426.66 669.643 1442.19 659.831 1508.69 621.857C1535.46 606.564 1558.46 587.1 1584.16 568.113C1637.35 528.708 1697.33 439.77 1822.5 374.824C1829.33 371.289 1836.68 367.674 1844.47 364.06C1904.61 336.254 1999.39 305.35 2131.23 309.799" stroke="#B195FF" stroke-opacity="0.5" stroke-miterlimit="10"/>
<path d="M-137.713 289.66C-78.883 304.556 -27.6402 317.465 12.8376 325.926C113.655 347.257 145.791 344.596 196.676 372.6C245.019 399.134 258.326 425.947 306.431 441.716C348.696 455.579 383.732 456.374 395.53 454.189C450.904 443.981 462.861 420.942 516.765 395.678C579.646 366.204 643.045 375.46 665.369 366.919C736.871 376.175 788.511 421.18 821.242 449.224C825.793 453.71 830.077 458.458 834.073 463.444C922.854 551.668 887.659 628.649 955.07 661.658C1008.02 687.597 1080.32 674.211 1124.81 672.105C1165.6 670.159 1196.51 664.796 1224.59 662.056C1256.61 658.918 1286.44 661.579 1323.9 668.371C1338.08 670.953 1349.8 675.124 1360.13 673.615C1423.01 664.32 1437.23 650.059 1502.33 608.391C1528.15 591.827 1550.6 571.131 1576.5 551.27C1627.3 512.263 1689.35 420.584 1816.46 353.732C1823.38 350.077 1830.77 346.423 1838.67 342.689C1899.29 314.407 1995.22 282.351 2129.01 286.124" stroke="#B195FF" stroke-opacity="0.5" stroke-miterlimit="10"/>
<path d="M-135.768 306.86C-78.3677 321.756 -27.9988 335.063 12.5187 344.08C109.959 365.808 142.969 364.458 193.616 392.263C240.887 418.361 254.909 444.538 301.464 460.228C342.459 474.091 376.382 476.117 388.537 474.091C442.879 465.312 455.709 444.895 508.66 420.982C569.834 393.177 630.491 401.439 654.364 391.667C723.244 399.612 770.554 445.531 808.569 464.875C813.614 470.278 817.984 474.647 821.479 477.745C911.77 556.713 881.62 628.69 947.124 658.72C1000.95 683.467 1073.56 669.524 1119.4 667.657C1160.48 665.989 1192.1 661.341 1220.66 659.713C1253.23 657.925 1283.62 663.208 1320.16 671.828C1334.54 675.204 1346.22 680.051 1356.51 678.501C1419.35 669.206 1432.22 650.696 1495.9 605.174C1520.8 587.418 1542.69 565.452 1568.79 544.677C1617.25 506.107 1681.33 411.608 1810.54 342.888C1817.51 339.207 1824.99 335.447 1832.99 331.607C1894.12 302.928 1991.44 269.799 2126.9 273.096" stroke="#B195FF" stroke-opacity="0.5" stroke-miterlimit="10"/>
<path d="M-133.74 322.353C-77.6512 337.249 -28.1562 350.993 12.401 360.486C106.306 382.572 140.349 382.572 190.559 410.536C236.757 436.157 251.494 461.698 296.461 477.349C336.184 491.172 368.995 494.271 381.548 492.563C434.896 485.294 448.561 467.458 500.717 444.896C560.302 419.077 618.099 425.949 643.522 415.025C709.859 421.222 756.693 462.97 796.018 479.057C800.14 483.168 804.504 487.028 809.087 490.616C900.768 560.408 875.783 626.983 939.339 654.351C994.078 677.907 1066.93 663.408 1114.12 661.819C1155.51 660.389 1187.85 656.457 1216.84 656.099C1249.97 655.662 1280.96 663.646 1316.71 674.014C1331.25 678.224 1342.93 683.706 1353.21 681.958C1415.94 672.623 1427.54 649.704 1489.78 600.488C1513.62 581.54 1535.11 558.343 1561.28 536.654C1607.4 498.6 1673.46 401.202 1804.79 330.575C1811.78 326.603 1819.36 322.949 1827.47 319.056C1889.08 289.542 1987.55 255.501 2124.95 257.844" stroke="#B195FF" stroke-opacity="0.5" stroke-miterlimit="10"/>
<path d="M-131.516 337.844C-76.8964 352.74 -28.2356 366.921 12.2819 376.971C102.652 399.295 137.33 400.605 187.501 428.61C232.626 453.793 248.078 478.699 291.496 494.27C330.027 508.094 361.647 509.246 374.557 510.874C426.792 517.548 441.41 489.822 492.455 468.65C550.252 444.816 605.387 450.338 632.359 438.222C696.194 442.87 742.472 480.288 783.307 493.118C787.469 496.826 791.875 500.25 796.495 503.367C889.527 563.943 869.784 625.155 931.554 649.823C987.166 672.147 1060.3 657.171 1108.88 655.781C1150.59 654.629 1183.6 651.451 1213.07 652.246C1246.76 653.159 1278.26 663.924 1313.25 676.079C1327.99 681.124 1339.59 687.201 1349.88 685.692C1412.56 676.317 1422.89 649.108 1483.63 596.078C1506.7 575.939 1527.52 551.47 1553.97 528.868C1597.67 491.371 1665.83 391.032 1799.26 318.341C1806.34 314.527 1813.98 310.555 1822.19 306.424C1884.27 276.315 1984.06 241.041 2123.25 242.868" stroke="#B195FF" stroke-opacity="0.5" stroke-miterlimit="10"/>
<path d="M-129.371 353.377C-76.1819 368.432 -28.4347 382.851 12.1623 393.417C98.997 415.979 134.509 418.681 184.441 446.724C228.494 471.432 244.662 495.543 286.49 511.432C323.79 525.255 354.337 527.321 367.525 529.426C418.45 537.371 434.22 512.425 484.351 492.604C540.44 470.399 592.874 474.927 621.356 461.62C682.648 464.758 728.608 497.768 770.476 507.38C774.678 510.694 779.127 513.682 783.783 516.318C878.086 567.718 863.825 623.568 923.291 645.534C979.976 666.547 1053.23 651.095 1103.12 649.983C1145.14 649.069 1178.87 646.646 1208.82 648.632C1243.06 650.897 1275.08 664.521 1309.32 678.146C1324.22 684.104 1335.82 690.778 1346.06 689.229C1408.67 679.854 1417.8 648.394 1477.15 591.512C1499.32 570.181 1519.57 544.481 1546.19 520.926C1587.82 484.024 1657.73 380.706 1793.27 306.426C1800.39 302.48 1808.11 298.508 1816.42 294.509C1879.03 263.843 1980.04 227.498 2121.06 228.689" stroke="#B195FF" stroke-opacity="0.5" stroke-miterlimit="10"/>
<path d="M-127.227 368.867C-75.5865 383.723 -28.5941 398.738 12.0426 409.86C95.4611 432.581 131.689 436.792 181.382 464.796C224.402 489.066 241.245 512.74 281.524 528.351C317.553 542.175 347.027 545.154 360.533 547.736C410.108 557.15 427.069 534.747 476.247 516.315C530.628 495.938 580.321 499.275 610.352 484.776C669.142 486.365 714.426 515.044 757.804 521.4C762.056 524.305 766.548 526.843 771.23 528.987C866.566 571.371 857.985 621.421 915.346 640.964C972.706 660.507 1046.43 644.936 1097.71 643.943C1140.02 643.268 1174.46 641.56 1204.97 644.737C1239.72 648.352 1272.26 664.599 1305.78 680.09C1320.84 686.962 1332.44 694.152 1342.65 692.642C1405.17 683.228 1413.16 647.597 1470.79 586.783C1492.12 564.3 1511.83 537.368 1538.6 512.82C1578.01 476.633 1649.83 370.257 1787.43 293.911C1794.58 289.939 1802.4 285.966 1810.82 281.637C1873.82 250.216 1976.15 212.798 2118.96 213.513" stroke="#B195FF" stroke-opacity="0.5" stroke-miterlimit="10"/>
<path d="M-125.082 384.321C-74.7529 399.177 -28.7138 414.59 11.9626 426.228C91.7266 449.108 128.868 454.788 178.323 482.832C220.27 506.666 237.908 529.665 276.518 545.077C311.356 558.9 339.758 562.793 353.541 565.852C401.805 576.537 419.879 556.914 468.182 539.834C520.815 521.244 567.768 523.468 599.269 507.778C655.516 507.778 700.284 532.128 745.013 535.226C749.349 537.721 753.895 539.835 758.598 541.542C855.363 574.988 852.185 619.159 907.401 636.319C966.151 654.551 1039.64 638.385 1092.31 637.828C1134.89 637.352 1170.05 636.398 1200.95 640.768C1236.27 645.733 1269.24 665.038 1302.09 681.92C1317.3 689.864 1328.86 697.451 1339.07 695.902C1401.56 686.528 1408.39 646.686 1464.44 581.939C1484.89 558.305 1504.16 530.3 1530.93 504.6C1568.19 469.128 1641.84 359.693 1781.55 281.441C1788.78 277.389 1796.65 273.205 1805.18 268.888C1868.74 237.111 1972.34 198.58 2116.97 198.461" stroke="#B195FF" stroke-opacity="0.5" stroke-miterlimit="10"/>
<path d="M-122.936 399.89C-74.0364 414.746 -28.8713 430.516 11.8449 442.75C88.1132 465.71 126.088 472.939 175.266 501.063C216.141 524.38 234.413 546.783 271.554 562.116C295.869 571.65 320.961 579.066 346.552 584.281C393.504 596.197 412.691 579.355 460.08 563.665C510.966 546.862 555.416 547.776 588.346 531.053C642.052 529.583 686.343 549.524 732.422 549.405C736.827 551.479 741.415 553.141 746.126 554.37C843.766 578.839 846.467 617.012 899.457 631.828C959.32 648.551 1032.89 633.099 1086.87 631.828C1129.77 630.835 1165.6 631.431 1197.02 636.952C1232.77 643.268 1266.3 665.513 1298.48 683.904C1313.81 692.643 1325.41 700.905 1335.58 699.356C1397.98 689.942 1403.74 645.969 1458.16 577.25C1477.75 552.503 1496.42 523.188 1523.39 496.534C1558.46 461.817 1633.94 349.284 1775.75 269.125C1783.02 265.152 1790.96 260.743 1799.58 256.334C1863.66 223.881 1968.53 184.318 2114.94 183.563" stroke="#B195FF" stroke-opacity="0.5" stroke-miterlimit="10"/>
<path d="M-120.791 415.421C-73.1233 430.277 -28.9909 446.364 11.7252 459.115C84.4979 482.075 123.268 490.893 172.246 519.056C211.969 541.896 230.997 563.704 266.549 578.957C290.244 588.747 314.652 596.715 339.56 602.79C385.281 615.859 405.5 601.837 451.976 587.617C501.114 572.522 542.704 572.482 577.342 554.449C628.545 551.39 672.32 567.001 719.71 563.624C724.196 565.262 728.824 566.485 733.534 567.279C832.285 582.969 840.786 614.945 891.512 627.498C952.527 642.592 1026.09 626.942 1081.47 625.988C1124.69 625.273 1161.19 626.584 1193.09 633.297C1229.48 640.964 1263.28 666.147 1294.9 686.048C1310.27 695.741 1321.95 704.519 1332.08 702.97C1394.45 693.516 1399.13 645.412 1451.85 572.721C1470.64 546.822 1488.79 516.355 1515.8 488.669C1548.85 454.746 1626.07 339.075 1770.03 256.969C1777.34 252.798 1785.4 248.429 1794.14 243.9C1858.73 210.891 1964.95 170.255 2113.08 168.825" stroke="#B195FF" stroke-opacity="0.5" stroke-miterlimit="10"/>
<path d="M-118.686 430.953C-72.6068 445.769 -29.11 462.214 11.6062 475.68C80.7641 498.679 120.487 509.087 169.188 537.289C207.918 559.693 227.581 580.984 261.584 596.039C284.659 605.902 308.359 614.235 332.529 620.984C377.059 635.165 398.311 624.043 443.754 611.212C491.183 597.905 530.032 596.754 566.22 577.488C614.881 572.92 658.139 584.162 706.919 577.488C711.483 578.704 716.151 579.489 720.862 579.832C820.726 586.823 834.907 612.325 883.449 622.772C945.615 636.198 1019.18 620.388 1075.95 619.832C1119.44 619.355 1156.66 621.381 1189.04 629.286C1225.98 638.303 1260.14 666.426 1291.17 687.837C1306.62 698.522 1318.34 707.698 1328.47 706.228C1390.75 696.774 1394.49 644.5 1445.45 567.836C1463.41 540.825 1481.2 509.245 1508.09 480.447C1539.24 447.358 1618.05 328.708 1764.15 244.497C1771.5 240.247 1779.64 235.798 1788.5 231.19C1853.57 197.625 1960.98 155.877 2111.01 153.93" stroke="#B195FF" stroke-opacity="0.5" stroke-miterlimit="10"/>
<path d="M-116.541 446.484C-71.8923 461.34 -29.1502 478.024 11.4865 492.205C77.3474 515.124 117.666 527.24 166.128 555.442C203.826 577.369 224.164 597.985 256.578 613.04C279.043 623.127 302.067 631.92 325.537 639.375C368.875 654.669 391.08 646.406 435.769 635.006C481.45 623.407 517.598 621.183 555.335 600.765C601.494 594.648 644.236 601.52 694.366 591.669C699.028 592.291 703.725 592.623 708.428 592.662C809.325 597.151 829.345 609.941 875.623 618.362C938.941 629.882 1012.55 613.357 1070.62 613.913C1114.32 614.35 1152.37 616.456 1185.22 625.552C1222.72 635.92 1257.16 667.022 1287.67 689.902C1303.2 701.58 1315 711.273 1325.09 709.763C1387.34 700.309 1390.12 643.943 1439.25 563.307C1456.41 535.144 1473.69 502.453 1500.67 472.463C1529.66 440.208 1610.34 318.221 1758.35 232.262C1765.79 227.919 1773.99 223.404 1782.94 218.717C1848.48 184.477 1957.2 141.696 2109.02 138.995" stroke="#B195FF" stroke-opacity="0.5" stroke-miterlimit="10"/>
<path d="M-114.396 461.977C-71.1778 476.794 -29.2699 493.755 11.3668 508.611C73.8115 531.412 114.845 545.235 163.069 573.517C199.694 594.967 220.707 614.987 251.612 629.963C280.213 643.865 303.252 651.81 318.545 657.768C360.731 674.094 383.89 668.731 427.665 658.841C467.262 649.749 506.232 638.112 544.332 624.004C586.12 609.307 629.736 594.689 681.654 605.772C686.368 606.428 691.156 606.32 695.835 605.454C798.083 595.365 823.625 607.44 867.677 613.915C932.188 623.369 1005.75 607.083 1065.22 607.956C1109.35 608.592 1147.96 611.492 1181.29 621.74C1219.31 633.657 1254.06 667.58 1284.05 691.929C1299.63 704.601 1311.54 714.77 1321.63 713.22C1383.76 703.727 1385.67 643.23 1432.86 558.621C1449.22 529.307 1466.11 495.582 1492.96 464.44C1519.81 433.298 1602.48 308.093 1752.43 219.91C1759.9 215.58 1768.32 210.933 1777.26 206.126C1843.32 171.33 1953.27 127.476 2106.96 124.1" stroke="#B195FF" stroke-opacity="0.5" stroke-miterlimit="10"/>
<path d="M-112.252 477.506C-70.4633 492.322 -29.3499 509.284 11.2869 525.173C70.2756 547.854 112.064 563.425 160.01 591.747C195.761 612.72 217.291 632.144 246.606 647.04C273.976 660.983 296.221 669.682 311.554 676.157C352.627 693.515 376.66 691.013 419.561 682.631C461.707 674.409 489.672 663.922 533.328 647.279C572.654 632.264 614.522 629.364 668.982 619.87C673.987 618.996 678.794 619.076 683.282 618.281C786.801 599.691 817.904 604.855 859.732 609.463C925.395 616.653 999.001 600.843 1059.78 601.995C1104.23 602.869 1143.55 606.524 1177.36 617.884C1215.93 630.993 1250.93 668.014 1280.44 693.873C1296.05 707.537 1308.25 718.183 1318.14 716.634C1380.18 707.14 1381.26 642.472 1426.66 553.773C1442.27 523.306 1458.8 488.628 1485.49 456.215C1510.63 425.708 1594.73 297.524 1746.75 207.434C1754.3 203.025 1762.64 198.298 1771.81 193.373C1838.35 158.02 1949.61 113.094 2105.05 109.042" stroke="#B195FF" stroke-opacity="0.5" stroke-miterlimit="10"/>
<path d="M-109.908 492.999C-69.5495 507.816 -29.1909 525.095 11.3664 541.5C66.9787 564.023 109.443 581.223 157.15 609.743C191.669 630.24 214.073 649.068 241.84 663.924C267.938 677.827 289.229 687.241 304.761 694.391C344.762 712.783 369.669 713.14 411.696 706.308C452.054 699.714 477.596 689.029 522.523 670.558C559.505 655.225 600.619 648.035 656.469 634.013C661.435 632.782 666.36 632.266 670.929 631.114C775.797 604.063 812.502 609.544 851.986 605.016C919.249 597.629 986.923 594.657 1054.57 596.118C1099.34 597.191 1139.34 601.6 1173.74 614.232C1212.87 628.691 1248.07 668.691 1277.02 696.02C1292.63 710.677 1304.83 721.76 1314.84 720.25C1376.85 710.717 1377.05 641.918 1420.58 549.445C1435.44 517.866 1451.69 482.235 1478.14 448.511C1501.38 418.918 1587.02 287.437 1741.15 195.48C1748.73 190.991 1757.04 186.185 1766.45 181.18C1833.5 145.192 1946 99.1934 2103.26 94.5459" stroke="#B195FF" stroke-opacity="0.5" stroke-miterlimit="10"/>
<path d="M-107.961 504.162C-69.0323 518.978 -29.4284 536.376 11.2083 553.616C63.4839 575.9 106.544 595.086 154.211 623.487C187.698 643.348 210.777 661.779 236.994 676.516C261.821 690.459 282.199 700.588 297.85 708.294C336.898 727.679 362.559 730.896 403.712 725.613C442.323 720.648 465.561 709.962 511.64 689.148C546.358 673.458 586.875 662.137 643.918 643.467C648.883 641.839 653.809 640.766 658.496 639.217C764.795 603.785 806.941 600.448 844.162 595.92C912.201 587.548 980.753 584.056 1049.29 585.473C1094.34 586.784 1135.05 591.948 1169.77 605.771C1209.49 621.66 1244.85 664.52 1273.53 693.16C1289.1 708.811 1301.33 720.409 1311.46 718.86C1373.39 709.287 1372.84 636.357 1414.39 539.872C1428.49 507.101 1444.58 470.596 1470.67 435.561C1492.08 406.842 1579.24 272.104 1735.47 178.241C1743.1 173.673 1751.64 168.787 1761.01 163.702C1828.54 127.118 1942.35 80.0474 2101.4 74.7246" stroke="#B195FF" stroke-opacity="0.5" stroke-miterlimit="10"/>
<path d="M-105.936 510.158C-68.437 524.974 -29.5083 542.373 10.8106 560.526C59.7495 582.572 103.604 603.505 150.715 632.026C183.169 651.529 206.884 669.285 231.552 683.903C255.147 697.885 274.612 708.65 290.421 717.151C328.516 737.528 354.932 743.566 395.171 739.872C432.034 736.495 453.127 726.088 500.199 702.851C532.693 686.962 572.733 671.391 630.769 648.034C635.774 646.048 640.739 644.419 645.466 642.473C753.354 598.58 800.625 586.306 835.78 581.896C904.223 573.356 978.545 567.874 1043.41 569.98C1088.78 571.449 1130.17 577.408 1165.4 592.423C1205.64 609.583 1241.15 655.462 1269.48 685.81C1285.05 702.493 1297.56 714.489 1307.53 712.94C1369.42 703.407 1368.07 626.266 1407.67 525.848C1421.02 491.926 1437.03 454.587 1462.65 418.161C1482.27 390.356 1570.9 252.361 1729.23 156.591C1736.94 151.983 1745.52 146.978 1755.01 141.774C1823.06 104.634 1938.1 56.4906 2098.97 50.4131" stroke="#B195FF" stroke-opacity="0.5" stroke-miterlimit="10"/>
<path d="M-103.711 515.881C-67.6026 530.657 -29.3096 548.056 10.8107 567.202C57.7142 589.179 103.432 613.602 147.776 640.37C179.197 659.437 203.388 676.637 226.706 691.096C248.99 705.197 267.581 716.557 283.549 725.733C320.73 747.144 347.861 755.962 387.187 753.896C422.342 752.069 441.409 742.178 489.315 716.319C519.743 699.914 559.347 680.371 618.217 652.366C623.222 649.983 628.227 647.798 633.033 645.494C742.47 593.141 794.508 569.824 827.954 567.639C897.827 563.19 971.871 551.75 1038.13 554.252C1083.81 555.881 1125.88 562.713 1161.59 578.88C1202.38 597.391 1238.02 646.408 1265.98 678.186C1281.47 695.862 1294.18 708.335 1304.15 706.826C1365.96 697.213 1363.74 615.901 1401.48 511.551C1414.8 472.462 1432.84 435.14 1455.18 400.408C1473.06 373.437 1563.11 232.224 1723.51 134.547C1731.26 129.86 1739.92 124.776 1749.53 119.493C1818.05 81.7567 1934.4 32.5408 2097.07 25.9072" stroke="#B195FF" stroke-opacity="0.5" stroke-miterlimit="10"/>
<path d="M-101.564 521.361C-16.4678 557.643 65.8481 600.128 144.719 648.472C271.594 726.288 306.273 768.314 379.085 767.639C432.115 767.123 444.628 744.56 605.507 656.417C726.503 590.12 787.001 557.111 820.011 553.139C938.624 539.276 1068.28 522.116 1157.66 565.056C1222.09 595.999 1272.85 704.401 1300.66 700.111C1383.09 687.321 1350.55 539.236 1447.64 382.333C1463.8 356.196 1555.25 211.806 1717.75 112.222C1780.83 73.5725 1907.47 9.30194 2095.12 1" stroke="#B195FF" stroke-opacity="0.5" stroke-miterlimit="10"/>
</svg>
